#!OML:ASF F:\VICON\USERDATA\INSTALL\rory3\rory3.ASF
:FULLY-SPECIFIED
:DEGREES
81
root 0.11182039661707638 17.888389378686764 32.82953638532912 -1.672709582547388 -4.858851307916483 -7.905635218563495
lfemur -26.750159776015128 -0.6242785865168934 -10.732746689857175
ltibia 37.62651880374946
lfoot -7.059444079427681 6.063637203944742
ltoes -3.7575324151487344
rfemur 0.4521280119660318 6.260339666026858 35.12973080813422
rtibia 25.159251165054357
rfoot -20.42252676642975 -7.163714824825831
rtoes 7.344674775822744
lowerback 9.608137474799937 2.149202081024158 6.989906636481604
upperback 0.5351171536224621 3.729696733556318 2.238104992614429
thorax -4.719899479995987 1.7186026725900743 -2.0297368271421563
lowerneck -16.578265897699115 -2.829052649929446 -1.8947836917037986
upperneck 20.076758973327625 -3.6599465465477152 1.1639408481468814
head 9.062949312588369 -1.7458000651285415 0.25611188425923637
lclavicle -2.4141281153533576e-15 4.812493714360775e-16
lhumerus -33.31200770724623 3.502806646826503 83.4288546474835
lradius 23.72126526957676
lwrist 4.449668053753412
lhand -28.4590151875381 21.355857320605857
lfingers 7.12502
lthumb -1.8291531781483525 51.3224141262803
rclavicle -2.4141281153533576e-15 4.812493714360777e-16
rhumerus -24.631815125441584 -10.21424309067466 -82.29425654158285
rradius 27.805285064406103
rwrist 1.6733205046637787
rhand -18.013278580998488 23.330684971361443
rfingers 7.12502
rthumb 8.257462529318152 -6.490692529548667
82
root 0.15007562025929172 17.82035980657938 33.59350695426481 -1.0372095599061668 -5.387843819309204 -8.228579857994674
lfemur -26.045896193808083 -2.7439114764444685 -9.13972744494976
ltibia 26.818580385813696
lfoot -6.331205408161095 8.510761958088768
ltoes -3.8198058200828897
rfemur 3.356943293941052 6.476289770211511 35.73993062091151
rtibia 24.142442059790074
rfoot -21.278943178110794 -7.162623523931907
rtoes 5.906502311553213
lowerback 9.35701828136163 2.473147009466506 7.552413641702684
upperback 0.48535013647879954 4.192576365708788 2.26760675972643
thorax -4.590379349168595 1.940238665849694 -2.234404975797867
lowerneck -16.73864618319373 -2.828821850808777 -1.7834069543405702
upperneck 19.932560036767185 -3.6740642186795185 1.1993136286053947
head 9.039260788199782 -1.7457187330293717 0.25339217040801854
lclavicle -1.9719883833815468e-15 8.886134741721692e-16
lhumerus -34.015435054316335 5.136121274212486 82.87120551692801
lradius 22.508231867695915
lwrist 3.942170984484994
lhand -28.44470461193232 22.16956019801399
lfingers 7.12502
lthumb -1.8153301218443798 52.131348566505956
rclavicle -1.9719883833815468e-15 8.886134741721692e-16
rhumerus -23.607158157700717 -9.40096852471304 -82.25551370239748
rradius 28.53415699908353
rwrist 1.314712570527215
rhand -18.07354837308545 23.812903011959598
rfingers 7.12502
rthumb 8.199278937698335 -6.01152896844915
83
root 0.19513938650928342 17.754201190222325 33.88879873995572 -0.5615626404852829 -5.790907986982209 -8.240967951795442
lfemur -24.953604706611785 -4.6832326620400995 -8.15351875121998
ltibia 18.295108503583283
lfoot -5.74433974987865 9.670017500880192
ltoes -3.706678415044335
rfemur 6.0930576709174105 6.770600693284875 35.83615407176421
rtibia 23.391235624761073
rfoot -22.030575535522914 -6.845512086867289
rtoes 3.3862009788043994
lowerback 9.097274533276739 2.73658082757496 7.771032714818302
upperback 0.4346997912811639 4.537204186446642 2.242206991564913
thorax -4.481430733212291 2.1102639142921866 -2.3265363664222574
lowerneck -16.827848541351702 -2.8422723943249664 -1.678519126479217
upperneck 19.886703758301707 -3.700965875417762 1.2097423483657401
head 9.034115032539587 -1.755415733688105 0.2374230034328902
lclavicle -1.6607423337815422e-15 1.1754686046305798e-15
lhumerus -34.68521057019856 6.87741190752365 82.17270189083155
lradius 21.252791778748453
lwrist 2.817229011532974
lhand -28.061447586380442 22.868192521937612
lfingers 7.12502
lthumb -1.4451751218758644 52.83310751417529
rclavicle -1.6607423337815422e-15 1.1754686046305798e-15
rhumerus -22.830894892614992 -9.163657221534447 -82.18652089659415
rradius 28.92060859685985
rwrist 1.2867575287150101
rhand -18.039245167280875 23.997481105905813
rfingers 7.12502
rthumb 8.232371730429687 -5.825331006946438
84
root 0.24628640940036428 17.683859230483602 33.71932134255096 -0.4237162734039823 -6.156923333581337 -8.117078950047746
lfemur -24.388169101345156 -5.708404230196978 -8.339392780329101
ltibia 13.032913786037767
lfoot -5.525260242211567 8.999626675600823
ltoes -3.0404599640687717
rfemur 8.185480423822156 6.70277039909743 35.326461563134
rtibia 23.55438419044231
rfoot -22.259700958656822 -6.038140665219134
rtoes 0.009338131421806839
lowerback 8.866427423610476 2.8843875755514423 7.5881131993972435
upperback 0.40383143495390006 4.68945216627369 2.1221937481229745
thorax -4.3947621718314345 2.192482725307879 -2.4080969747067456
lowerneck -16.91898607546323 -2.8761500459399314 -1.6686164768700567
upperneck 19.915285129616244 -3.7596249212633546 1.2604954035968547
head 9.057174307376629 -1.7758490535141602 0.23868194136192
lclavicle -1.9090314567656947e-15 9.46936883504528e-16
lhumerus -35.62207532561599 8.371796693885901 81.38538548884343
lradius 19.75222310539029
lwrist 1.5708044255189022
lhand -27.791849644619507 23.24645890015843
lfingers 7.12502
lthumb -1.1847971395926398 53.21516629502227
rclavicle -1.9090314567656947e-15 9.46936883504528e-16
rhumerus -22.45410424772383 -9.60791921228688 -82.14375209381757
rradius 29.038821472569317
rwrist 1.3646402078446833
rhand -18.145874462867038 24.04989978710902
rfingers 7.12502
rthumb 8.129456370353285 -5.7755510020774485
